<?xml version="1.0" encoding="UTF-8" standalone="no"?>
<!-- Svg Vector Icons : http://www.onlinewebfonts.com/icon -->

<svg
   xmlns:dc="http://purl.org/dc/elements/1.1/"
   xmlns:cc="http://creativecommons.org/ns#"
   xmlns:rdf="http://www.w3.org/1999/02/22-rdf-syntax-ns#"
   xmlns:svg="http://www.w3.org/2000/svg"
   xmlns="http://www.w3.org/2000/svg"
   xmlns:sodipodi="http://sodipodi.sourceforge.net/DTD/sodipodi-0.dtd"
   xmlns:inkscape="http://www.inkscape.org/namespaces/inkscape"
   version="1.1"
   x="0px"
   y="0px"
   viewBox="0 0 1000 1000"
   enable-background="new 0 0 1000 1000"
   xml:space="preserve"
   id="svg8"
   sodipodi:docname="camera.svg"
   inkscape:version="0.92.3 (2405546, 2018-03-11)"><defs
   id="defs12" /><sodipodi:namedview
   pagecolor="#ffffff"
   bordercolor="#666666"
   borderopacity="1"
   objecttolerance="10"
   gridtolerance="10"
   guidetolerance="10"
   inkscape:pageopacity="0"
   inkscape:pageshadow="2"
   inkscape:window-width="1366"
   inkscape:window-height="705"
   id="namedview10"
   showgrid="false"
   inkscape:zoom="0.236"
   inkscape:cx="-133.47458"
   inkscape:cy="500"
   inkscape:window-x="-8"
   inkscape:window-y="-8"
   inkscape:window-maximized="1"
   inkscape:current-layer="svg8" />
<metadata
   id="metadata2"> Svg Vector Icons : http://www.onlinewebfonts.com/icon <rdf:RDF><cc:Work
     rdf:about=""><dc:format>image/svg+xml</dc:format><dc:type
       rdf:resource="http://purl.org/dc/dcmitype/StillImage" /><dc:title></dc:title></cc:Work></rdf:RDF></metadata>

<path
   id="path3771"
   style="fill:#f9f9f9"
   d="m 519.06836,313.55859 a 209.74576,205.50847 0 0 0 -106.06055,28.67774 c -4.17925,3.56358 -9.17069,6.74291 -14.95703,9.40429 a 209.74576,205.50847 0 0 0 -23.03516,18.39649 c -0.0904,0.19298 -0.20409,0.39682 -0.29882,0.5918 6.71372,22.88592 -7.83037,48.78856 -43.47266,58.03906 a 209.74576,205.50847 0 0 0 -21.92187,90.40039 209.74576,205.50847 0 0 0 209.74609,205.50781 209.74576,205.50847 0 0 0 209.74609,-205.50781 209.74576,205.50847 0 0 0 -6.57031,-49.31641 c -0.18581,-0.10661 -0.33552,-0.19519 -0.52344,-0.30273 -21.87754,-12.51985 -34.99603,-27.36369 -41.00586,-41.80078 -0.0249,0.008 -0.0493,0.0172 -0.0742,0.0254 -2.35757,0.77674 -5.39251,2.76674 -7.34374,1.23242 -19.55233,-15.37448 -55.01366,-72.55565 -58.54297,-56.8457 -0.13021,1.27716 -0.23522,2.53947 -0.28321,3.76562 -0.0373,-1.55607 0.065,-2.79419 0.28321,-3.76562 0.75263,-7.38257 2.85487,-15.52255 6.1289,-23.44336 -2.80714,-3.37703 -5.49128,-6.93283 -8.4414,-9.9668 -0.9906,-1.01874 -2.98457,-3.95904 -3.0625,-4.69922 -0.0734,-0.0839 -0.13719,-0.16154 -0.20899,-0.24414 a 209.74576,205.50847 0 0 0 -90.10156,-20.14844 z m 114.64648,33.50391 c -0.16314,1.9481 -0.22741,4.1779 -0.20703,6.59375 0.28655,0.3074 0.57169,0.61636 0.86328,0.91602 0.81353,-0.78153 1.62248,-1.56759 2.42969,-2.35547 -0.63201,-1.44047 -1.26456,-2.88019 -1.89648,-4.32032 a 209.74576,205.50847 0 0 0 -1.18946,-0.83398 z m -2.44531,13.94727 c 0.0539,0.17162 0.0947,0.29366 0.15039,0.47265 6.3e-4,-0.067 6.9e-4,-0.13413 0.002,-0.20117 -0.0524,-0.0933 -0.0986,-0.17527 -0.15235,-0.27148 z m 7.76172,11.99609 c -1.36157,0.0402 -2.74644,0.0684 -4.14453,0.0879 0.0213,0.17421 0.0389,0.36257 0.0606,0.53516 1.39531,2.40291 2.74104,4.83953 4.13671,7.24218 0.1132,-2.6172 0.0759,-5.23931 -0.0527,-7.86523 z m -2.93555,8.19336 c 1.03893,5.6987 2.10435,8.52924 2.59571,4.56836 0.1725,-1.3906 0.27633,-2.78389 0.35156,-4.17774 -0.96242,-0.13074 -1.96591,-0.26037 -2.94727,-0.39062 z m 3.45118,0.45703 c 1.70389,2.89426 3.49938,5.72328 5.59179,8.34375 0.48577,0.60835 1.23836,1.43149 2.07422,2.29102 -1.35851,-3.24325 -2.27581,-6.57469 -2.74414,-9.93946 -1.64169,-0.23193 -3.22586,-0.46401 -4.92187,-0.69531 z" /><path
   id="rect3783"
   style="fill:#f2f2f2;stroke-width:0.90684533"
   d="m 420.2207,283.89844 c 20.28749,25.99519 6.62184,63.92184 -41.0039,73.82812 -0.19466,0.95259 -0.5883,2.05104 -1.12305,3.25196 -0.66521,2.98587 -1.68068,6.16239 -3.37695,9.65234 8.39793,28.63206 -16.45652,62.00794 -74.29297,61.55469 -1.35894,-0.0106 -2.71724,-0.0206 -4.07617,-0.0312 -5.31086,-0.0259 -10.62072,0.15311 -15.92969,0.22851 0.0122,0.0613 0.0311,0.12021 0.043,0.18164 0.46662,2.4234 0.13944,2.76862 -0.68946,1.80078 1.13579,4.60274 1.44503,11.02084 0.73438,19.66016 -0.37328,4.53803 -0.40595,9.11839 -1.12109,13.61523 -0.24048,1.51216 -1.95131,8.35892 -3.33594,12.67969 -0.14475,7.10078 -0.98683,10.67431 -5.66992,20.04688 -0.55484,1.66947 -1.41559,3.74712 -2.38868,5.69922 -0.42524,16.07087 -2.47441,33.31403 -16.25,45.07812 -10.3379,8.82836 -24.83442,11.03025 -37.33593,16.41016 2.58682,-0.33947 5.16068,-0.8333 7.76562,-0.85938 2.78038,-0.0278 -5.51401,0.71315 -8.27148,1.07031 0.16685,-0.0733 0.33827,-0.13881 0.50586,-0.21093 -0.66715,0.0875 -1.33431,0.17152 -2.00391,0.22656 -6.57974,0.54085 -13.27504,-0.0525 -19.85937,-0.0371 -1.32072,-0.0798 -2.64289,-0.14755 -3.9629,-0.23828 -10.3608,-0.71214 2.08153,-0.89074 1.97071,-3.29297 -0.5903,-12.79494 -1.88394,-25.5341 -3.43945,-38.25195 -1.26733,1.29257 -2.57318,2.49255 -3.91407,3.59961 -6.07945,8.28373 -11.89707,16.83292 -17.9414,25.15234 v 258.8457 H 868.64453 V 591.66016 c -20.24224,2.89922 -42.30136,-9.25234 -53.00781,-36.82813 -5.95377,-2.80566 -9.51885,-6.3683 -8.01172,-12.97851 -8.47286,-5.55288 -6.86077,-3.43186 -11.2168,-9.3418 -5.75725,-7.3039 -18.21841,-15.44521 -22.98632,-20.36133 -3.91458,-4.03623 -7.1742,-8.6986 -10.17579,-13.45312 -3.19778,-5.06528 -5.47452,-8.73959 -7.27539,-11.80665 -0.88798,-0.31139 -1.77118,-0.63536 -2.64648,-0.98242 -12.44904,-4.93595 -19.98363,-9.80927 -31.60352,-16.45898 -21.87754,-12.51985 -34.99603,-27.36369 -41.00586,-41.80078 -0.0249,0.008 -0.0493,0.0172 -0.0742,0.0254 -2.35757,0.77674 -5.39251,2.76674 -7.34374,1.23242 -19.55233,-15.37448 -55.01366,-72.55565 -58.54297,-56.8457 -0.13021,1.27716 -0.23522,2.53947 -0.28321,3.76562 -0.0373,-1.55607 0.065,-2.79419 0.28321,-3.76562 0.75263,-7.38257 2.85487,-15.52255 6.1289,-23.44336 -2.80714,-3.37703 -5.49128,-6.93283 -8.4414,-9.9668 -0.9906,-1.01874 -2.98457,-3.95904 -3.0625,-4.69922 -2.05387,-2.35024 -3.44961,-4.11086 -7.05274,-9.09765 -0.78486,-1.08628 -3.43393,-3.89089 -2.20117,-3.36524 3.20515,1.36667 10.06281,9.18251 8.51953,6.0586 -25.59175,-51.8037 -27.90992,-32.90941 -28.11328,-43.64844 z m 213.64649,61.63281 c -0.2802,2.26302 -0.3853,5.05329 -0.35938,8.125 0.28655,0.3074 0.57169,0.61636 0.86328,0.91602 0.81353,-0.78153 1.62248,-1.56759 2.42969,-2.35547 -0.97796,-2.22894 -1.95552,-4.458 -2.93359,-6.68555 z m -2.59766,15.47852 c 0.0539,0.17162 0.0947,0.29366 0.15039,0.47265 6.3e-4,-0.067 5.1e-4,-0.13413 0.002,-0.20117 -0.0524,-0.0933 -0.0986,-0.17527 -0.15235,-0.27148 z m 7.76172,11.99609 c -1.36157,0.0402 -2.74644,0.0684 -4.14453,0.0879 0.0213,0.17421 0.0389,0.36257 0.0606,0.53516 1.39531,2.40291 2.74104,4.83953 4.13671,7.24218 0.1132,-2.6172 0.0759,-5.23931 -0.0527,-7.86523 z m -2.93555,8.19336 c 1.03893,5.6987 2.10435,8.52924 2.59571,4.56836 0.1725,-1.3906 0.27633,-2.78389 0.35156,-4.17774 -0.96242,-0.13074 -1.96591,-0.26037 -2.94727,-0.39062 z m 3.45118,0.45703 c 1.70389,2.89426 3.49938,5.72328 5.59179,8.34375 0.48577,0.60835 1.23836,1.43149 2.07422,2.29102 -1.35851,-3.24325 -2.27581,-6.57469 -2.74414,-9.93946 -1.64169,-0.23193 -3.2259,-0.46401 -4.92187,-0.69531 z m -359.88086,36.00977 c -1.11785,1.03908 -2.35522,2.21714 -3.61719,3.42187 0.71588,1.30122 1.37445,2.6222 1.97265,3.96484 1.99478,-0.9817 3.97227,-1.99826 5.90625,-3.08984 0.68235,-0.38513 1.54441,-1.11444 2.47852,-2.0293 -2.37199,-0.63972 -4.62816,-1.39497 -6.74023,-2.26757 z m -6.09766,5.78906 c -0.46809,0.45363 -1.03442,1.02069 -1.51953,1.49414 1.07295,0.23858 2.06276,0.66371 2.96289,1.28711 -0.4682,-0.89284 -0.94969,-1.82205 -1.44336,-2.78125 z m -32.32227,16.40039 c -5.61521,0.96544 -11.16444,1.11979 -19.91406,0.83203 -1.70893,-0.003 -4.84752,1.53398 -5.50391,0.39648 -0.62762,0.43464 -2.54948,-0.44473 -3.60742,-0.4414 -1.24658,0.004 -2.49374,0.0143 -3.74023,0.0293 -0.66803,0.008 -1.33595,0.0218 -2.00391,0.0332 1.54289,7.82711 1.15039,13.50355 1.15039,23.27734 0,0.72071 -0.0229,1.41852 -0.0332,2.12891 0.73993,-0.032 1.48842,-0.0633 2.23828,-0.0957 9.97509,-8.07285 21.04152,-18.03794 31.41406,-26.16015 z m -51.25781,2.61523 c -0.6047,0.19096 -3.9638,3.5998 -4.88476,5.17578 -4.07913,6.98032 -6.30671,10.62276 -7.62891,13.36133 -0.0159,0.13808 -0.024,0.26005 -0.0391,0.39649 4.29067,-6.07666 8.62559,-12.12653 12.46875,-18.49024 0.21776,-0.36058 0.22347,-0.48742 0.084,-0.44336 z m -9.16211,2.07032 c -0.0305,-0.0846 -0.84202,1.79158 -1.02929,2.50976 -0.15624,0.59914 -0.27809,1.20553 -0.39063,1.81445 0.35646,-0.98971 0.79235,-2.27336 1.38086,-4.1582 0.0316,-0.10121 0.0434,-0.15392 0.0391,-0.16601 z m 28.63867,21.76562 c -0.55742,0.0698 -1.16627,0.13975 -1.8789,0.2168 -5.9e-4,0.0338 -8.8e-4,0.0678 -0.002,0.10156 0.52591,-0.0451 0.85869,-0.0711 1.65235,-0.13867 0.0771,-0.0621 0.15124,-0.11735 0.22851,-0.17969 z m 5.45508,29.19922 c -0.25676,0.008 -0.52832,0.12174 -0.80859,0.30078 1.09023,5.19731 1.8851,11.57581 4.58984,21.79688 1.77391,6.70348 1.0856,-22.24177 -3.78125,-22.09766 z m 578.95117,20.37891 c 2.02597,5.58952 2.4678,12.0459 6.07813,16.76953 1.91498,2.50549 4.86787,5.37438 7.9668,8.11523 0.38777,-1.31065 0.95949,-2.73523 1.73632,-4.28711 -4.08591,-5.75329 -9.03369,-12.58796 -15.78125,-20.59765 z m 7.67383,20.94531 c 0.45102,0.36186 3.25883,2.44212 6.18946,4.61133 0.0153,-0.06 0.0327,-0.12111 0.0488,-0.18164 -1.81944,-1.30396 -3.3383,-2.40338 -5.68554,-4.06446 -0.57642,-0.40791 -0.72503,-0.50347 -0.55274,-0.36523 z" /><path
   id="rect3785"
   style="fill:#808080"
   d="m 273.28711,423.72852 c -0.38355,0.37226 -0.84533,0.83529 -1.24023,1.2207 1.08836,0.24178 2.09148,0.67456 3.00195,1.3125 -0.44539,-0.84335 -0.85938,-1.60851 -1.33594,-2.5332 z m 4.12305,0 c 0.21138,0.43878 0.40388,0.88451 0.60156,1.32812 0.88234,-0.43414 1.76172,-0.87276 2.63281,-1.32812 z m 67.84765,0 c -11.66948,5.37053 -26.60566,8.59988 -44.83398,8.45703 -1.35894,-0.0106 -2.71724,-0.0206 -4.07617,-0.0312 -5.31086,-0.0259 -10.62072,0.15311 -15.92969,0.22851 0.0122,0.0613 0.0311,0.12019 0.043,0.18164 0.46485,2.4142 0.12931,2.73298 -0.70313,1.75 1.14634,4.60624 1.46137,11.03915 0.74805,19.71094 -0.37328,4.53803 -0.40595,9.11839 -1.12109,13.61523 -0.24048,1.51216 -1.95131,8.35892 -3.33594,12.67969 -0.14475,7.10078 -0.98683,10.67431 -5.66992,20.04688 -0.55484,1.66947 -1.41559,3.74712 -2.38868,5.69922 -0.42524,16.07087 -2.47441,33.31403 -16.25,45.07812 -10.3379,8.82836 -24.83442,11.03025 -37.33593,16.41016 2.58682,-0.33947 5.16068,-0.8333 7.76562,-0.85938 2.78038,-0.0278 -5.51401,0.71315 -8.27148,1.07031 0.16685,-0.0733 0.33827,-0.13881 0.50586,-0.21093 -0.66715,0.0875 -1.33431,0.17152 -2.00391,0.22656 -6.57974,0.54085 -13.27504,-0.0525 -19.85937,-0.0371 -1.32072,-0.0798 -2.64289,-0.14755 -3.9629,-0.23828 -10.3608,-0.71214 2.08153,-0.89074 1.97071,-3.29297 -0.5903,-12.79494 -1.88397,-25.5341 -3.43945,-38.25195 -1.26733,1.29257 -2.57318,2.49255 -3.91407,3.59961 -6.07945,8.28373 -11.89707,16.83292 -17.9414,25.15234 v 258.8457 H 868.64453 V 591.66016 c -20.24224,2.89922 -42.30136,-9.25234 -53.00781,-36.82813 -5.95377,-2.80566 -9.51885,-6.3683 -8.01172,-12.97851 -8.47286,-5.55288 -6.86077,-3.43186 -11.2168,-9.3418 -5.75725,-7.3039 -18.21841,-15.44521 -22.98632,-20.36133 -3.91458,-4.03623 -7.1742,-8.6986 -10.17579,-13.45312 -3.19778,-5.06528 -5.47452,-8.73959 -7.27539,-11.80665 -0.88798,-0.31139 -1.77118,-0.63536 -2.64648,-0.98242 -12.44904,-4.93595 -19.98363,-9.80927 -31.60352,-16.45898 -21.87754,-12.51985 -34.99603,-27.36369 -41.00586,-41.80078 -0.0249,0.008 -0.0493,0.0172 -0.0742,0.0254 -2.35757,0.77674 -5.39251,2.76674 -7.34374,1.23242 -1.78562,-1.40408 -3.70616,-3.16366 -5.72071,-5.17773 z m -104.01172,16.12695 c -5.61521,0.96544 -11.16444,1.11979 -19.91406,0.83203 -1.70893,-0.003 -4.84752,1.53398 -5.50391,0.39648 -0.62762,0.43464 -2.54948,-0.44473 -3.60742,-0.4414 -1.24658,0.004 -2.49374,0.0143 -3.74023,0.0293 -0.66803,0.008 -1.33595,0.0218 -2.00391,0.0332 1.54289,7.82711 1.15039,13.50355 1.15039,23.27734 0,0.72071 -0.0229,1.41852 -0.0332,2.12891 0.73993,-0.032 1.48842,-0.0633 2.23828,-0.0957 9.97509,-8.07285 21.04152,-18.03794 31.41406,-26.16015 z m -51.25781,2.61523 c -0.6047,0.19096 -3.9638,3.5998 -4.88476,5.17578 -4.07913,6.98032 -6.30671,10.62276 -7.62891,13.36133 -0.0159,0.13808 -0.024,0.26005 -0.0391,0.39649 4.29067,-6.07666 8.62559,-12.12653 12.46875,-18.49024 0.21776,-0.36058 0.22347,-0.48742 0.084,-0.44336 z m -9.16211,2.07032 c -0.0305,-0.0846 -0.84203,1.79158 -1.02929,2.50976 -0.15624,0.59914 -0.27809,1.20553 -0.39063,1.81445 0.35646,-0.98971 0.79235,-2.27336 1.38086,-4.1582 0.0316,-0.10121 0.0434,-0.15392 0.0391,-0.16601 z m 28.63867,21.76562 c -0.55742,0.0698 -1.16627,0.13975 -1.8789,0.2168 -5.9e-4,0.0338 -8.8e-4,0.0678 -0.002,0.10156 0.52591,-0.0451 0.85869,-0.0711 1.65235,-0.13867 0.0771,-0.0621 0.15124,-0.11735 0.22851,-0.17969 z m 5.45508,29.19922 c -0.25676,0.008 -0.52832,0.12174 -0.80859,0.30078 1.09023,5.19731 1.8851,11.57581 4.58984,21.79688 1.77391,6.70348 1.0856,-22.24177 -3.78125,-22.09766 z m 578.95117,20.37891 c 2.02597,5.58952 2.4678,12.0459 6.07813,16.76953 1.91498,2.50549 4.86787,5.37438 7.9668,8.11523 0.38777,-1.31065 0.95949,-2.73523 1.73632,-4.28711 -4.08591,-5.75329 -9.03369,-12.58796 -15.78125,-20.59765 z m 7.67383,20.94531 c 0.45102,0.36186 3.25883,2.44212 6.18946,4.61133 0.0153,-0.06 0.0327,-0.12111 0.0488,-0.18164 -1.81944,-1.30396 -3.3383,-2.40338 -5.68554,-4.06446 -0.57642,-0.40791 -0.72503,-0.50347 -0.55274,-0.36523 z" /><path
   id="rect3787"
   style="fill:#808080"
   d="m 420.2207,283.89844 c 20.28749,25.99519 6.62184,63.92184 -41.0039,73.82812 -0.19466,0.95259 -0.5883,2.05104 -1.12305,3.25196 -0.66521,2.98587 -1.68068,6.16239 -3.37695,9.65234 5.23685,17.85462 -2.45846,37.54714 -23.02149,49.73828 V 805.08398 H 656.7793 V 411.77344 c -18.48439,-21.87839 -39.3598,-51.57819 -42.02539,-39.71289 -0.13021,1.27716 -0.23522,2.53947 -0.28321,3.76562 -0.0373,-1.55607 0.065,-2.79419 0.28321,-3.76562 0.75263,-7.38257 2.85487,-15.52255 6.1289,-23.44336 -2.80714,-3.37703 -5.49128,-6.93283 -8.4414,-9.9668 -0.9906,-1.01874 -2.98457,-3.95904 -3.0625,-4.69922 -2.05387,-2.35024 -3.44961,-4.11086 -7.05274,-9.09765 -0.78486,-1.08628 -3.43393,-3.89089 -2.20117,-3.36524 3.20515,1.36667 10.06281,9.18253 8.51953,6.0586 -25.59175,-51.8037 -27.90992,-32.90941 -28.11328,-43.64844 z m 213.64649,61.63281 c -0.2802,2.26302 -0.3853,5.05329 -0.35938,8.125 0.28655,0.3074 0.57169,0.61636 0.86328,0.91602 0.81353,-0.78153 1.62248,-1.56759 2.42969,-2.35547 -0.97796,-2.22894 -1.95552,-4.458 -2.93359,-6.68555 z m -2.59766,15.47852 c 0.0539,0.17162 0.0947,0.29366 0.15039,0.47265 6.3e-4,-0.067 7.8e-4,-0.13413 0.002,-0.20117 -0.0524,-0.0933 -0.0986,-0.17527 -0.15235,-0.27148 z m 7.76172,11.99609 c -1.36157,0.0402 -2.74644,0.0684 -4.14453,0.0879 0.0213,0.17421 0.0389,0.36257 0.0606,0.53516 1.39531,2.40291 2.74104,4.83953 4.13671,7.24218 0.1132,-2.6172 0.0759,-5.23931 -0.0527,-7.86523 z m -2.93555,8.19336 c 1.03893,5.6987 2.10435,8.52924 2.59571,4.56836 0.1725,-1.3906 0.27633,-2.78389 0.35156,-4.17774 -0.96242,-0.13074 -1.96591,-0.26037 -2.94727,-0.39062 z m 3.45118,0.45703 c 1.70389,2.89426 3.49938,5.72328 5.59179,8.34375 0.48577,0.60835 1.23836,1.43149 2.07422,2.29102 -1.35851,-3.24325 -2.27581,-6.57469 -2.74414,-9.93946 -1.64169,-0.23193 -3.22585,-0.46401 -4.92187,-0.69531 z" /><ellipse
   style="fill:#4d4d4d;stroke-width:1.08218431"
   id="path3791"
   cx="500"
   cy="612.28815"
   rx="152.54237"
   ry="154.66101" /><ellipse
   style="fill:#f9f9f9"
   id="path3793"
   cx="502.11862"
   cy="608.05084"
   rx="112.28814"
   ry="120.76273" /><path
   style="fill:#ffffff;stroke:#000000;stroke-width:1px;stroke-linecap:butt;stroke-linejoin:miter;stroke-opacity:1"
   d="M 165.25394,813.55865 161.01695,398.30508 H 334.74576 L 406.7389,273.60931 h 207.66788 l 61.48616,106.49716 5.78825,10.02553 h 186.96288 v 427.66461 z"
   id="path4197"
   inkscape:connector-curvature="0" /><ellipse
   style="fill:#333333;stroke-width:0.94761664"
   id="path4199"
   cx="519.43567"
   cy="585.09668"
   rx="171.24236"
   ry="173.37788" /><ellipse
   style="fill:#ffffff;stroke-width:0.9301042"
   id="path4201"
   cx="516.94916"
   cy="586.86438"
   rx="110.16949"
   ry="116.52543" /><ellipse
   style="fill:#333333"
   id="path4208"
   cx="778.57422"
   cy="456.60178"
   rx="26.84082"
   ry="24.7959" /></svg>